<svg xmlns="http://www.w3.org/2000/svg" width="134.999" height="46.003" viewBox="0 0 134.999 46.003">
  <defs>
    <style>
      .cls-1 {
        fill: #000;
      }
    </style>
  </defs>
  <g id="logo_lost" transform="translate(0)">
    <path id="路径_1005" data-name="路径 1005" class="cls-1" d="M137.464,478.242l-19.964,11.5v23l19.964,11.5,19.964-11.5v-23Zm-4.081,18.91,1.887-1.091,3.943,2.28-1.875,1.093,3.617,2.087,1.9-1.1,4.064,2.433-1.815,1.054,7.176,4.14-14.691,8.453-.094-.054-15.527-8.921v-4.694l15.638,9.039,6.584-3.805-3.134-1.805-1.91,1.109-4.18-2.394,1.929-1.114-3.6-2.074-1.9,1.107-4.022-2.272,1.946-1.125-7.539-4.344,15.8-9.177,15.573,9.088-3.793,2.194-.094-.054-11.678-6.714-7.9,4.521Z" transform="translate(-117.5 -478.242)"/>
    <g id="组_745" data-name="组 745" transform="translate(55.37 9.378)">
      <path id="路径_1006" data-name="路径 1006" class="cls-1" d="M226.956,497.053a1.134,1.134,0,0,1,1.2,1.157v27.772h-2.107c-.7,0-.827-.413-.868-.62V497.053Z" transform="translate(-225.179 -496.764)"/>
      <path id="路径_1007" data-name="路径 1007" class="cls-1" d="M268.736,496.493a3.725,3.725,0,0,1,3.595,3.678v22.192A3.718,3.718,0,0,1,268.736,526h-2.273a3.742,3.742,0,0,1-3.719-3.637V500.172a3.7,3.7,0,0,1,3.719-3.678Zm-.992,26.9a1.579,1.579,0,0,0,1.57-1.612V500.709a1.579,1.579,0,0,0-1.57-1.612h-.455a1.633,1.633,0,0,0-1.57,1.612v21.077a1.633,1.633,0,0,0,1.57,1.612Z" transform="translate(-243.322 -496.493)"/>
      <path id="路径_1008" data-name="路径 1008" class="cls-1" d="M317.251,504.056v-3.348a1.571,1.571,0,1,0-3.14,0v2.769a9.716,9.716,0,0,0,1.281,3.885l3.554,6.695a9.279,9.279,0,0,1,1.323,4.587v3.678a3.7,3.7,0,0,1-3.72,3.679h-1.859a3.755,3.755,0,0,1-3.6-3.679v-2.976a1.7,1.7,0,0,1,.827-1.612c.248-.083,1.446-.62,2.19-.95v5.042a1.571,1.571,0,1,0,3.14-.041v-3.306a10.006,10.006,0,0,0-1.281-3.926l-3.554-6.654a9.276,9.276,0,0,1-1.323-4.587v-2.976a3.839,3.839,0,0,1,3.719-3.844h1.859a3.847,3.847,0,0,1,3.6,3.844v1.116a1.7,1.7,0,0,1-.827,1.612C319.193,503.188,318.036,503.725,317.251,504.056Z" transform="translate(-266.671 -496.493)"/>
      <path id="路径_1009" data-name="路径 1009" class="cls-1" d="M366.31,499.2a1.565,1.565,0,0,1-1.57.785h-2.314a.762.762,0,0,0-.744.7v25.292h-2.107c-.7,0-.827-.413-.827-.62V499.987h-4.174v-2.025a.918.918,0,0,1,.91-.909H367.3Z" transform="translate(-287.672 -496.764)"/>
    </g>
  </g>
</svg>
