<svg xmlns="http://www.w3.org/2000/svg" width="12" height="11" viewBox="0 0 12 11">
  <defs>
    <style>
      .cls-1 {
        fill: #52525c;
      }
    </style>
  </defs>
  <path id="mute" class="cls-1" d="M20.083,21.712a1.272,1.272,0,0,0-1.333,1.227v2.581a1.279,1.279,0,0,0,1.333,1.269h1.156l2.533,2.5a1.406,1.406,0,0,0,.933.465.589.589,0,0,0,.267-.042.751.751,0,0,0,.444-.677V26.069l-4.756-4.358Zm10.533,6.473-.8-.719a6.319,6.319,0,0,0,.933-3.215,6.253,6.253,0,0,0-1.644-4.188.447.447,0,0,0-.622-.042.4.4,0,0,0-.044.592,5.612,5.612,0,0,1,1.422,3.638,5.133,5.133,0,0,1-.711,2.581l-1.289-1.185a5.084,5.084,0,0,0,.222-1.4,4.37,4.37,0,0,0-.933-2.708.41.41,0,0,0-.622-.085.373.373,0,0,0-.089.592,3.675,3.675,0,0,1,.756,2.2,3.555,3.555,0,0,1-.089.719l-1.689-1.523V19.512a.67.67,0,0,0-.444-.677,1.15,1.15,0,0,0-1.2.423l-1.467,1.4-1.911-1.777a.445.445,0,0,0-.622,0,.4.4,0,0,0,0,.592l10.222,9.308a.445.445,0,0,0,.622,0,.4.4,0,0,0,0-.592Z" transform="translate(-18.75 -18.75)"/>
</svg>
