<svg xmlns="http://www.w3.org/2000/svg" width="30" height="30" viewBox="0 0 30 30">
  <defs>
    <style>
      .cls-1 {
        fill: #fff;
        opacity: 1;
      }

      .cls-2 {
        fill: #4D4EB2;
      }
    </style>
  </defs>
  <g id="telegram" transform="translate(-773 -28)">
    <circle id="Oval-5" class="cls-1" cx="15" cy="15" r="15" transform="translate(773 28)"/>
    <path id="icon_telegram" class="cls-2" d="M1388.457,3710.852l4.033,1.5,1.56,5.016a.475.475,0,0,0,.754.227l2.248-1.831a.671.671,0,0,1,.817-.023l4.054,2.942a.475.475,0,0,0,.745-.287l2.97-14.275a.475.475,0,0,0-.636-.54l-16.549,6.38A.476.476,0,0,0,1388.457,3710.852Zm5.342.7,7.881-4.851a.138.138,0,0,1,.165.218l-6.5,6.041a1.351,1.351,0,0,0-.418.806l-.221,1.641a.2.2,0,0,1-.4.029l-.852-2.992A.791.791,0,0,1,1393.8,3711.556Z" transform="translate(-610.148 -3667.551)"/>
  </g>
</svg>
