<svg xmlns="http://www.w3.org/2000/svg" width="12" height="11" viewBox="0 0 12 11">
  <defs>
    <style>
      .cls-1 {
        fill: #52525c;
      }
    </style>
  </defs>
  <g id="voice" transform="translate(-18.75 -19.6)">
    <path id="路径_1" data-name="路径 1" class="cls-1" d="M24.728,30.6a1.471,1.471,0,0,1-.958-.5l-2.538-2.44H20.083a1.31,1.31,0,0,1-1.333-1.282V23.815a1.31,1.31,0,0,1,1.333-1.282h1.149l2.536-2.439a1.46,1.46,0,0,1,.956-.494.7.7,0,0,1,.691.8v9.4A.7.7,0,0,1,24.728,30.6Zm2.238-2.587a.456.456,0,0,1-.259-.08.417.417,0,0,1-.1-.6l.176-.232a3.056,3.056,0,0,0,.857-2.008,2.762,2.762,0,0,0-.8-1.935c-.079-.1-.157-.2-.235-.3a.417.417,0,0,1,.1-.6.455.455,0,0,1,.62.1c.073.1.148.193.222.287a3.564,3.564,0,0,1,.978,2.451,3.874,3.874,0,0,1-1.03,2.515l-.17.224a.45.45,0,0,1-.362.178Z" transform="translate(0 0)"/>
    <path id="路径_2" data-name="路径 2" class="cls-1" d="M149.752,44.864a.454.454,0,0,1-.293-.106.416.416,0,0,1-.041-.6,5.353,5.353,0,0,0,1.717-3.658,5.351,5.351,0,0,0-1.717-3.658.417.417,0,0,1,.041-.6.457.457,0,0,1,.627.039,6.188,6.188,0,0,1,1.937,4.222,6.185,6.185,0,0,1-1.937,4.221.452.452,0,0,1-.334.146Z" transform="translate(-121.273 -15.399)"/>
  </g>
</svg>
